<svg width="70" height="23" viewBox="0 0 70 23" fill="none" xmlns="http://www.w3.org/2000/svg">
<mask id="path-1-outside-1_13_30" maskUnits="userSpaceOnUse" x="0" y="2" width="71" height="18" fill="black">
<rect fill="white" y="2" width="71" height="18"/>
<path d="M1.8 18V4.4H3.4V10.46H9.88V4.4H11.48V18H9.88V11.94H3.4V18H1.8ZM19.8213 4.4L24.4013 18H22.7413L21.4213 14H16.2613L14.9413 18H13.2812L17.8613 4.4H19.8213ZM18.8413 6.16L16.7213 12.56H20.9413L18.8413 6.16ZM30.7839 18.32C29.4772 18.32 28.3772 17.9933 27.4839 17.34C26.6039 16.6867 25.9706 15.84 25.5839 14.8C25.1972 13.76 25.0039 12.56 25.0039 11.2C25.0039 9.84 25.1972 8.64 25.5839 7.6C25.9706 6.56 26.6039 5.71333 27.4839 5.06C28.3772 4.40667 29.5439 4.08 30.9839 4.08C32.4372 4.08 33.7239 4.38667 34.8439 5L34.2839 6.36C33.2172 5.81333 32.0106 5.54 30.6639 5.54C29.3306 5.54 28.3172 6.06667 27.6239 7.12C26.9439 8.16 26.6039 9.52667 26.6039 11.22C26.6039 12.9 26.9439 14.26 27.6239 15.3C28.3039 16.34 29.3039 16.86 30.6239 16.86C31.9572 16.86 33.0439 16.6267 33.8839 16.16V11.92H30.8239V10.48H35.4039V16.94C33.9372 17.86 32.3972 18.32 30.7839 18.32ZM38.6945 18V4.4H40.2945V18H38.6945ZM43.6898 18L44.1898 4.4H46.0498L50.2298 13.98L54.4298 4.4H56.2898L56.7898 18H55.1898L54.7898 7.36L51.0698 15.88H49.4098L45.6698 7.36L45.2898 18H43.6898ZM64.9384 4.4L69.5184 18H67.8584L66.5384 14H61.3784L60.0584 18H58.3984L62.9784 4.4H64.9384ZM63.9584 6.16L61.8384 12.56H66.0584L63.9584 6.16Z"/>
</mask>
<path d="M1.8 18V4.4H3.4V10.46H9.88V4.4H11.48V18H9.88V11.94H3.4V18H1.8ZM19.8213 4.4L24.4013 18H22.7413L21.4213 14H16.2613L14.9413 18H13.2812L17.8613 4.4H19.8213ZM18.8413 6.16L16.7213 12.56H20.9413L18.8413 6.16ZM30.7839 18.32C29.4772 18.32 28.3772 17.9933 27.4839 17.34C26.6039 16.6867 25.9706 15.84 25.5839 14.8C25.1972 13.76 25.0039 12.56 25.0039 11.2C25.0039 9.84 25.1972 8.64 25.5839 7.6C25.9706 6.56 26.6039 5.71333 27.4839 5.06C28.3772 4.40667 29.5439 4.08 30.9839 4.08C32.4372 4.08 33.7239 4.38667 34.8439 5L34.2839 6.36C33.2172 5.81333 32.0106 5.54 30.6639 5.54C29.3306 5.54 28.3172 6.06667 27.6239 7.12C26.9439 8.16 26.6039 9.52667 26.6039 11.22C26.6039 12.9 26.9439 14.26 27.6239 15.3C28.3039 16.34 29.3039 16.86 30.6239 16.86C31.9572 16.86 33.0439 16.6267 33.8839 16.16V11.92H30.8239V10.48H35.4039V16.94C33.9372 17.86 32.3972 18.32 30.7839 18.32ZM38.6945 18V4.4H40.2945V18H38.6945ZM43.6898 18L44.1898 4.4H46.0498L50.2298 13.98L54.4298 4.4H56.2898L56.7898 18H55.1898L54.7898 7.36L51.0698 15.88H49.4098L45.6698 7.36L45.2898 18H43.6898ZM64.9384 4.4L69.5184 18H67.8584L66.5384 14H61.3784L60.0584 18H58.3984L62.9784 4.4H64.9384ZM63.9584 6.16L61.8384 12.56H66.0584L63.9584 6.16Z" fill="#DBDBDB"/>
<path d="M1.8 18H0.8V19H1.8V18ZM1.8 4.4V3.4H0.8V4.4H1.8ZM3.4 4.4H4.4V3.4H3.4V4.4ZM3.4 10.46H2.4V11.46H3.4V10.46ZM9.88 10.46V11.46H10.88V10.46H9.88ZM9.88 4.4V3.4H8.88V4.4H9.88ZM11.48 4.4H12.48V3.4H11.48V4.4ZM11.48 18V19H12.48V18H11.48ZM9.88 18H8.88V19H9.88V18ZM9.88 11.94H10.88V10.94H9.88V11.94ZM3.4 11.94V10.94H2.4V11.94H3.4ZM3.4 18V19H4.4V18H3.4ZM2.8 18V4.4H0.8V18H2.8ZM1.8 5.4H3.4V3.4H1.8V5.4ZM2.4 4.4V10.46H4.4V4.4H2.4ZM3.4 11.46H9.88V9.46H3.4V11.46ZM10.88 10.46V4.4H8.88V10.46H10.88ZM9.88 5.4H11.48V3.4H9.88V5.4ZM10.48 4.4V18H12.48V4.4H10.48ZM11.48 17H9.88V19H11.48V17ZM10.88 18V11.94H8.88V18H10.88ZM9.88 10.94H3.4V12.94H9.88V10.94ZM2.4 11.94V18H4.4V11.94H2.4ZM3.4 17H1.8V19H3.4V17ZM19.8213 4.4L20.769 4.08085L20.5397 3.4H19.8213V4.4ZM24.4013 18V19H25.7932L25.349 17.6808L24.4013 18ZM22.7413 18L21.7916 18.3134L22.0182 19H22.7413V18ZM21.4212 14L22.3709 13.6866L22.1443 13H21.4212V14ZM16.2612 14V13H15.5382L15.3116 13.6866L16.2612 14ZM14.9412 18V19H15.6643L15.8909 18.3134L14.9412 18ZM13.2812 18L12.3335 17.6808L11.8893 19H13.2812V18ZM17.8612 4.4V3.4H17.1428L16.9135 4.08085L17.8612 4.4ZM18.8413 6.16L19.7914 5.84823L18.8458 2.96623L17.892 5.84555L18.8413 6.16ZM16.7213 12.56L15.772 12.2456L15.3366 13.56H16.7213V12.56ZM20.9412 12.56V13.56H22.3218L21.8914 12.2482L20.9412 12.56ZM18.8735 4.71915L23.4535 18.3192L25.349 17.6808L20.769 4.08085L18.8735 4.71915ZM24.4013 17H22.7413V19H24.4013V17ZM23.6909 17.6866L22.3709 13.6866L20.4716 14.3134L21.7916 18.3134L23.6909 17.6866ZM21.4212 13H16.2612V15H21.4212V13ZM15.3116 13.6866L13.9916 17.6866L15.8909 18.3134L17.2109 14.3134L15.3116 13.6866ZM14.9412 17H13.2812V19H14.9412V17ZM14.229 18.3192L18.809 4.71915L16.9135 4.08085L12.3335 17.6808L14.229 18.3192ZM17.8612 5.4H19.8213V3.4H17.8612V5.4ZM17.892 5.84555L15.772 12.2456L17.6705 12.8744L19.7905 6.47445L17.892 5.84555ZM16.7213 13.56H20.9412V11.56H16.7213V13.56ZM21.8914 12.2482L19.7914 5.84823L17.8911 6.47177L19.9911 12.8718L21.8914 12.2482ZM27.4839 17.34L26.8878 18.1429L26.8936 18.1472L27.4839 17.34ZM25.5839 14.8L26.5212 14.4515L25.5839 14.8ZM25.5839 7.6L26.5212 7.94849L25.5839 7.6ZM27.4839 5.06L26.8936 4.25281L26.8878 4.25709L27.4839 5.06ZM34.8439 5L35.7686 5.38075L36.1095 4.55291L35.3242 4.1229L34.8439 5ZM34.2839 6.36L33.8278 7.24993L34.7948 7.74554L35.2086 6.74075L34.2839 6.36ZM27.6239 7.12L26.7886 6.57019L26.7869 6.57275L27.6239 7.12ZM27.6239 15.3L26.7869 15.8472L27.6239 15.3ZM33.8839 16.16L34.3695 17.0342L34.8839 16.7484V16.16H33.8839ZM33.8839 11.92H34.8839V10.92H33.8839V11.92ZM30.8239 11.92H29.8239V12.92H30.8239V11.92ZM30.8239 10.48V9.48H29.8239V10.48H30.8239ZM35.4039 10.48H36.4039V9.48H35.4039V10.48ZM35.4039 16.94L35.9353 17.7871L36.4039 17.4932V16.94H35.4039ZM30.7839 17.32C29.65 17.32 28.7669 17.0394 28.0742 16.5328L26.8936 18.1472C27.9876 18.9473 29.3045 19.32 30.7839 19.32V17.32ZM28.08 16.5371C27.3573 16.0006 26.8414 15.3126 26.5212 14.4515L24.6466 15.1485C25.0998 16.3674 25.8505 17.3728 26.8878 18.1429L28.08 16.5371ZM26.5212 14.4515C26.1842 13.545 26.0039 12.467 26.0039 11.2H24.0039C24.0039 12.653 24.2103 13.975 24.6466 15.1485L26.5212 14.4515ZM26.0039 11.2C26.0039 9.933 26.1842 8.85499 26.5212 7.94849L24.6466 7.25151C24.2103 8.42501 24.0039 9.74699 24.0039 11.2H26.0039ZM26.5212 7.94849C26.8414 7.08739 27.3573 6.39945 28.08 5.86291L26.8878 4.25709C25.8505 5.02722 25.0998 6.03261 24.6466 7.25151L26.5212 7.94849ZM28.0742 5.86717C28.751 5.37218 29.6923 5.08 30.9839 5.08V3.08C29.3955 3.08 28.0034 3.44115 26.8936 4.25283L28.0742 5.86717ZM30.9839 5.08C32.2928 5.08 33.4102 5.35497 34.3636 5.8771L35.3242 4.1229C34.0377 3.41836 32.5816 3.08 30.9839 3.08V5.08ZM33.9192 4.61925L33.3592 5.97925L35.2086 6.74075L35.7686 5.38075L33.9192 4.61925ZM34.74 5.47007C33.5155 4.84253 32.1494 4.54 30.6639 4.54V6.54C31.8718 6.54 32.9189 6.78413 33.8278 7.24993L34.74 5.47007ZM30.6639 4.54C29.0172 4.54 27.6793 5.2171 26.7886 6.57019L28.4592 7.66981C28.9552 6.91623 29.6439 6.54 30.6639 6.54V4.54ZM26.7869 6.57275C25.9684 7.82457 25.6039 9.40073 25.6039 11.22H27.6039C27.6039 9.65261 27.9194 8.49543 28.4609 7.66725L26.7869 6.57275ZM25.6039 11.22C25.6039 13.0278 25.9692 14.5966 26.7869 15.8472L28.4609 14.7528C27.9186 13.9234 27.6039 12.7722 27.6039 11.22H25.6039ZM26.7869 15.8472C27.665 17.1902 28.9915 17.86 30.6239 17.86V15.86C29.6163 15.86 28.9428 15.4898 28.4609 14.7528L26.7869 15.8472ZM30.6239 17.86C32.0646 17.86 33.3345 17.6092 34.3695 17.0342L33.3983 15.2858C32.7533 15.6441 31.8499 15.86 30.6239 15.86V17.86ZM34.8839 16.16V11.92H32.8839V16.16H34.8839ZM33.8839 10.92H30.8239V12.92H33.8839V10.92ZM31.8239 11.92V10.48H29.8239V11.92H31.8239ZM30.8239 11.48H35.4039V9.48H30.8239V11.48ZM34.4039 10.48V16.94H36.4039V10.48H34.4039ZM34.8725 16.0929C33.553 16.9206 32.1954 17.32 30.7839 17.32V19.32C32.599 19.32 34.3215 18.7994 35.9353 17.7871L34.8725 16.0929ZM38.6945 18H37.6945V19H38.6945V18ZM38.6945 4.4V3.4H37.6945V4.4H38.6945ZM40.2945 4.4H41.2945V3.4H40.2945V4.4ZM40.2945 18V19H41.2945V18H40.2945ZM39.6945 18V4.4H37.6945V18H39.6945ZM38.6945 5.4H40.2945V3.4H38.6945V5.4ZM39.2945 4.4V18H41.2945V4.4H39.2945ZM40.2945 17H38.6945V19H40.2945V17ZM43.6898 18L42.6905 17.9633L42.6524 19H43.6898V18ZM44.1898 4.4V3.4H43.2259L43.1905 4.36326L44.1898 4.4ZM46.0498 4.4L46.9664 4.00008L46.7046 3.4H46.0498V4.4ZM50.2298 13.98L49.3133 14.3799L50.2277 16.4755L51.1457 14.3815L50.2298 13.98ZM54.4298 4.4V3.4H53.7764L53.514 3.99848L54.4298 4.4ZM56.2898 4.4L57.2892 4.36326L57.2538 3.4H56.2898V4.4ZM56.7898 18V19H57.8273L57.7892 17.9633L56.7898 18ZM55.1898 18L54.1906 18.0376L54.2267 19H55.1898V18ZM54.7898 7.36L55.7891 7.32243L53.8734 6.95986L54.7898 7.36ZM51.0698 15.88V16.88H51.7244L51.9863 16.2801L51.0698 15.88ZM49.4098 15.88L48.4942 16.2819L48.7567 16.88H49.4098V15.88ZM45.6698 7.36L46.5855 6.95805L44.6705 7.32431L45.6698 7.36ZM45.2898 18V19H46.2548L46.2892 18.0357L45.2898 18ZM44.6892 18.0367L45.1892 4.43674L43.1905 4.36326L42.6905 17.9633L44.6892 18.0367ZM44.1898 5.4H46.0498V3.4H44.1898V5.4ZM45.1333 4.79991L49.3133 14.3799L51.1464 13.5801L46.9664 4.00008L45.1333 4.79991ZM51.1457 14.3815L55.3457 4.80152L53.514 3.99848L49.314 13.5785L51.1457 14.3815ZM54.4298 5.4H56.2898V3.4H54.4298V5.4ZM55.2905 4.43674L55.7905 18.0367L57.7892 17.9633L57.2892 4.36326L55.2905 4.43674ZM56.7898 17H55.1898V19H56.7898V17ZM56.1891 17.9624L55.7891 7.32243L53.7906 7.39757L54.1906 18.0376L56.1891 17.9624ZM53.8734 6.95986L50.1534 15.4799L51.9863 16.2801L55.7063 7.76014L53.8734 6.95986ZM51.0698 14.88H49.4098V16.88H51.0698V14.88ZM50.3255 15.4781L46.5855 6.95805L44.7542 7.76195L48.4942 16.2819L50.3255 15.4781ZM44.6705 7.32431L44.2905 17.9643L46.2892 18.0357L46.6692 7.39569L44.6705 7.32431ZM45.2898 17H43.6898V19H45.2898V17ZM64.9384 4.4L65.8861 4.08085L65.6569 3.4H64.9384V4.4ZM69.5184 18V19H70.9104L70.4661 17.6808L69.5184 18ZM67.8584 18L66.9088 18.3134L67.1354 19H67.8584V18ZM66.5384 14L67.4881 13.6866L67.2615 13H66.5384V14ZM61.3784 14V13H60.6554L60.4288 13.6866L61.3784 14ZM60.0584 18V19H60.7815L61.0081 18.3134L60.0584 18ZM58.3984 18L57.4507 17.6808L57.0065 19H58.3984V18ZM62.9784 4.4V3.4H62.26L62.0307 4.08085L62.9784 4.4ZM63.9584 6.16L64.9086 5.84823L63.9629 2.96623L63.0092 5.84555L63.9584 6.16ZM61.8384 12.56L60.8892 12.2456L60.4538 13.56H61.8384V12.56ZM66.0584 12.56V13.56H67.439L67.0086 12.2482L66.0584 12.56ZM63.9907 4.71915L68.5707 18.3192L70.4661 17.6808L65.8861 4.08085L63.9907 4.71915ZM69.5184 17H67.8584V19H69.5184V17ZM68.8081 17.6866L67.4881 13.6866L65.5888 14.3134L66.9088 18.3134L68.8081 17.6866ZM66.5384 13H61.3784V15H66.5384V13ZM60.4288 13.6866L59.1088 17.6866L61.0081 18.3134L62.3281 14.3134L60.4288 13.6866ZM60.0584 17H58.3984V19H60.0584V17ZM59.3461 18.3192L63.9261 4.71915L62.0307 4.08085L57.4507 17.6808L59.3461 18.3192ZM62.9784 5.4H64.9384V3.4H62.9784V5.4ZM63.0092 5.84555L60.8892 12.2456L62.7877 12.8744L64.9077 6.47445L63.0092 5.84555ZM61.8384 13.56H66.0584V11.56H61.8384V13.56ZM67.0086 12.2482L64.9086 5.84823L63.0083 6.47177L65.1083 12.8718L67.0086 12.2482Z" fill="#DBDBDB" mask="url(#path-1-outside-1_13_30)"/>
</svg>
